# xmcd
# 
# Track frame offsets:
#   150
#   15536
#   33955
#   51941
#   67560
#   79753
#   97156
#   114518
#   129503
#   149946
#   165332
#   183751
#   201737
#   217356
#   229549
#   246952
#   264314
#   279299
# 
# Disc length: 3996 seconds
# 
# Revision: 3
# Processed by: cddbd v1.5.2PL0 Copyright (c) Steve Scherf et al.
# Submitted via: Synapstar 1.0 
# 
DISCID=030f9a12
DTITLE=Various Artist - PHM 20803-5
DYEAR=2008
DGENRE=Country
TTITLE0=George Strait - I Saw God Today
TTITLE1=Montgomery Gentry - Back When I Knew It All
TTITLE2=Tracy Lawrence - Til I Was A Daddy Too
TTITLE3=Ashton Shepherd - Takin' Off This Pain
TTITLE4=Garth Brooks and Huey Lewis - Workin' For A Livin'
TTITLE5=Blake Shelton - Home
TTITLE6=Keith Anderson - I Still Miss You
TTITLE7=Lost Trailers, The - Holler Back
TTITLE8=Randy Owen - Braid My Hair
TTITLE9=George Strait - I Saw God Today (Vocal)
TTITLE10=Montgomery Gentry - Back When I Knew It All (Vocal)
TTITLE11=Tracy Lawrence - Til I Was A Daddy Too (Vocal)
TTITLE12=Ashton Shepherd - Takin' Off This Pain (Vocal)
TTITLE13=Garth Brooks and Huey Lewis - Workin' For A Livin' (Vocal)
TTITLE14=Blake Shelton - Home (Vocal)
TTITLE15=Keith Anderson - I Still Miss You (Vocal)
TTITLE16=Lost Trailers, The - Holler Back (Vocal)
TTITLE17=Randy Owen - Braid My Hair (Vocal)
EXTD=MediaType: Karaoke CD+G Producer: Pop Hits Monthly
EXTT0=
EXTT1=
EXTT2=
EXTT3=
EXTT4=
EXTT5=
EXTT6=
EXTT7=
EXTT8=
EXTT9=
EXTT10=
EXTT11=
EXTT12=
EXTT13=
EXTT14=
EXTT15=
EXTT16=
EXTT17=
PLAYORDER=
